STARTFONT 2.1
FONT --Opal-Regular-R-Normal--12-120-72-72-P-92-ISO8859-1
SIZE 12 72 72
FONTBOUNDINGBOX 12 12 0 -3
METRICSSET 2
STARTPROPERTIES 17
PIXEL_SIZE 12
RESOLUTION_X 72
RESOLUTION_Y 72
POINT_SIZE 120
FACE_NAME "Opal Regular 12"
FOUNDRY ""
FAMILY_NAME "Opal"
WEIGHT_NAME "Regular"
RELATIVE_WEIGHT 50
SLANT "R"
SPACING "P"
SETWIDTH_NAME "Normal"
RELATIVE_SETWIDTH 50
ADD_STYLE_NAME ""
AVERAGE_WIDTH 92
CHARSET_REGISTRY "ISO8859"
CHARSET_ENCODING "1"
ENDPROPERTIES
CHARS 225
STARTCHAR space
ENCODING 32
SWIDTH 667 0
DWIDTH 8 0
BBX 0 0 8 -3
VVECTOR 8 -3
SWIDTH1 0 0
DWIDTH1 0 0
BITMAP 
ENDCHAR
STARTCHAR exclam
ENCODING 33
SWIDTH 500 0
DWIDTH 6 0
BBX 2 9 2 0
VVECTOR 3 9
SWIDTH1 0 -1000
DWIDTH1 0 -12
BITMAP 
C0
C0
C0
C0
C0
C0
C0
00
C0
ENDCHAR
STARTCHAR quotedbl
ENCODING 34
SWIDTH 583 0
DWIDTH 7 0
BBX 4 3 1 6
VVECTOR 3 9
SWIDTH1 0 -1000
DWIDTH1 0 -12
BITMAP 
90
90
90
ENDCHAR
STARTCHAR numbersign
ENCODING 35
SWIDTH 917 0
DWIDTH 11 0
BBX 9 8 0 0
VVECTOR 5 9
SWIDTH1 0 -1000
DWIDTH1 0 -12
BITMAP 
2200
2200
FF80
2200
2200
FF80
2200
2200
ENDCHAR
STARTCHAR dollar
ENCODING 36
SWIDTH 667 0
DWIDTH 8 0
BBX 7 9 0 0
VVECTOR 4 9
SWIDTH1 0 -1000
DWIDTH1 0 -12
BITMAP 
28
6C
AA
A8
6C
2A
AA
6C
28
ENDCHAR
STARTCHAR percent
ENCODING 37
SWIDTH 833 0
DWIDTH 10 0
BBX 9 9 0 0
VVECTOR 5 9
SWIDTH1 0 -1000
DWIDTH1 0 -12
BITMAP 
6080
9100
6200
0400
0800
1000
2300
4480
8300
ENDCHAR
STARTCHAR ampersand
ENCODING 38
SWIDTH 667 0
DWIDTH 8 0
BBX 7 8 0 0
VVECTOR 4 9
SWIDTH1 0 -1000
DWIDTH1 0 -12
BITMAP 
70
88
50
20
52
8C
8C
72
ENDCHAR
STARTCHAR quotesingle
ENCODING 39
SWIDTH 583 0
DWIDTH 7 0
BBX 2 3 2 6
VVECTOR 3 9
SWIDTH1 0 -1000
DWIDTH1 0 -12
BITMAP 
40
40
80
ENDCHAR
STARTCHAR parenleft
ENCODING 40
SWIDTH 500 0
DWIDTH 6 0
BBX 4 11 0 -2
VVECTOR 2 9
SWIDTH1 0 -1000
DWIDTH1 0 -12
BITMAP 
10
20
40
80
80
80
80
80
40
20
10
ENDCHAR
STARTCHAR parenright
ENCODING 41
SWIDTH 500 0
DWIDTH 6 0
BBX 4 11 0 -2
VVECTOR 2 9
SWIDTH1 0 -1000
DWIDTH1 0 -12
BITMAP 
80
40
20
10
10
10
10
10
20
40
80
ENDCHAR
STARTCHAR asterisk
ENCODING 42
SWIDTH 1000 0
DWIDTH 12 0
BBX 10 5 0 2
VVECTOR 5 9
SWIDTH1 0 -1000
DWIDTH1 0 -12
BITMAP 
2100
1200
FFC0
1200
2100
ENDCHAR
STARTCHAR plus
ENCODING 43
SWIDTH 917 0
DWIDTH 11 0
BBX 9 5 0 2
VVECTOR 5 9
SWIDTH1 0 -1000
DWIDTH1 0 -12
BITMAP 
0800
0800
FF80
0800
0800
ENDCHAR
STARTCHAR comma
ENCODING 44
SWIDTH 583 0
DWIDTH 7 0
BBX 2 3 2 -2
VVECTOR 3 9
SWIDTH1 0 -1000
DWIDTH1 0 -12
BITMAP 
40
40
80
ENDCHAR
STARTCHAR hyphen
ENCODING 45
SWIDTH 750 0
DWIDTH 9 0
BBX 7 1 0 4
VVECTOR 4 9
SWIDTH1 0 -1000
DWIDTH1 0 -12
BITMAP 
FE
ENDCHAR
STARTCHAR period
ENCODING 46
SWIDTH 417 0
DWIDTH 5 0
BBX 2 1 1 0
VVECTOR 2 9
SWIDTH1 0 -1000
DWIDTH1 0 -12
BITMAP 
C0
ENDCHAR
STARTCHAR slash
ENCODING 47
SWIDTH 833 0
DWIDTH 10 0
BBX 9 9 0 0
VVECTOR 5 9
SWIDTH1 0 -1000
DWIDTH1 0 -12
BITMAP 
0080
0100
0200
0400
0800
1000
2000
4000
8000
ENDCHAR
STARTCHAR zero
ENCODING 48
SWIDTH 750 0
DWIDTH 9 0
BBX 8 9 0 0
VVECTOR 4 9
SWIDTH1 0 -1000
DWIDTH1 0 -12
BITMAP 
3C
42
A1
91
89
85
83
42
3C
ENDCHAR
STARTCHAR one
ENCODING 49
SWIDTH 500 0
DWIDTH 6 0
BBX 2 9 1 0
VVECTOR 2 9
SWIDTH1 0 -1000
DWIDTH1 0 -12
BITMAP 
40
C0
40
40
40
40
40
40
40
ENDCHAR
STARTCHAR two
ENCODING 50
SWIDTH 667 0
DWIDTH 8 0
BBX 7 9 0 0
VVECTOR 4 9
SWIDTH1 0 -1000
DWIDTH1 0 -12
BITMAP 
38
44
82
42
04
08
10
20
7E
ENDCHAR
STARTCHAR three
ENCODING 51
SWIDTH 667 0
DWIDTH 8 0
BBX 7 9 0 0
VVECTOR 4 9
SWIDTH1 0 -1000
DWIDTH1 0 -12
BITMAP 
78
84
02
04
38
04
02
84
78
ENDCHAR
STARTCHAR four
ENCODING 52
SWIDTH 750 0
DWIDTH 9 0
BBX 7 9 0 0
VVECTOR 4 9
SWIDTH1 0 -1000
DWIDTH1 0 -12
BITMAP 
06
0A
12
22
42
FE
02
02
02
ENDCHAR
STARTCHAR five
ENCODING 53
SWIDTH 583 0
DWIDTH 7 0
BBX 6 9 0 0
VVECTOR 3 9
SWIDTH1 0 -1000
DWIDTH1 0 -12
BITMAP 
FC
80
80
80
F0
08
04
88
70
ENDCHAR
STARTCHAR six
ENCODING 54
SWIDTH 750 0
DWIDTH 9 0
BBX 8 9 0 0
VVECTOR 4 9
SWIDTH1 0 -1000
DWIDTH1 0 -12
BITMAP 
38
40
80
8E
91
A1
C1
42
3C
ENDCHAR
STARTCHAR seven
ENCODING 55
SWIDTH 667 0
DWIDTH 8 0
BBX 7 9 0 0
VVECTOR 4 9
SWIDTH1 0 -1000
DWIDTH1 0 -12
BITMAP 
FE
02
04
08
10
10
10
10
10
ENDCHAR
STARTCHAR eight
ENCODING 56
SWIDTH 667 0
DWIDTH 8 0
BBX 7 9 0 0
VVECTOR 4 9
SWIDTH1 0 -1000
DWIDTH1 0 -12
BITMAP 
38
44
82
44
38
44
82
44
38
ENDCHAR
STARTCHAR nine
ENCODING 57
SWIDTH 667 0
DWIDTH 8 0
BBX 7 9 0 0
VVECTOR 4 9
SWIDTH1 0 -1000
DWIDTH1 0 -12
BITMAP 
38
44
82
86
8A
72
02
04
38
ENDCHAR
STARTCHAR colon
ENCODING 58
SWIDTH 667 0
DWIDTH 8 0
BBX 2 4 2 2
VVECTOR 3 9
SWIDTH1 0 -1000
DWIDTH1 0 -12
BITMAP 
C0
00
00
C0
ENDCHAR
STARTCHAR semicolon
ENCODING 59
SWIDTH 750 0
DWIDTH 9 0
BBX 2 6 3 0
VVECTOR 4 9
SWIDTH1 0 -1000
DWIDTH1 0 -12
BITMAP 
C0
00
00
40
40
80
ENDCHAR
STARTCHAR less
ENCODING 60
SWIDTH 667 0
DWIDTH 8 0
BBX 6 6 0 2
VVECTOR 3 9
SWIDTH1 0 -1000
DWIDTH1 0 -12
BITMAP 
04
08
10
20
40
FC
ENDCHAR
STARTCHAR equal
ENCODING 61
SWIDTH 667 0
DWIDTH 8 0
BBX 6 4 0 2
VVECTOR 3 9
SWIDTH1 0 -1000
DWIDTH1 0 -12
BITMAP 
FC
00
00
FC
ENDCHAR
STARTCHAR greater
ENCODING 62
SWIDTH 667 0
DWIDTH 8 0
BBX 6 6 0 2
VVECTOR 3 9
SWIDTH1 0 -1000
DWIDTH1 0 -12
BITMAP 
80
40
20
10
08
FC
ENDCHAR
STARTCHAR question
ENCODING 63
SWIDTH 833 0
DWIDTH 10 0
BBX 7 9 1 0
VVECTOR 5 9
SWIDTH1 0 -1000
DWIDTH1 0 -12
BITMAP 
38
44
82
04
08
10
10
00
10
ENDCHAR
STARTCHAR at
ENCODING 64
SWIDTH 917 0
DWIDTH 11 0
BBX 10 9 0 0
VVECTOR 5 9
SWIDTH1 0 -1000
DWIDTH1 0 -12
BITMAP 
3F00
4080
8040
8E40
9240
9240
8F80
4000
3C00
ENDCHAR
STARTCHAR A
ENCODING 65
SWIDTH 833 0
DWIDTH 10 0
BBX 8 9 0 0
VVECTOR 4 9
SWIDTH1 0 -1000
DWIDTH1 0 -12
BITMAP 
0F
11
21
41
81
81
83
85
79
ENDCHAR
STARTCHAR B
ENCODING 66
SWIDTH 750 0
DWIDTH 9 0
BBX 8 9 0 0
VVECTOR 4 9
SWIDTH1 0 -1000
DWIDTH1 0 -12
BITMAP 
FC
82
81
82
FC
82
81
82
FC
ENDCHAR
STARTCHAR C
ENCODING 67
SWIDTH 833 0
DWIDTH 10 0
BBX 8 9 0 0
VVECTOR 4 9
SWIDTH1 0 -1000
DWIDTH1 0 -12
BITMAP 
3E
41
80
80
80
80
80
41
3E
ENDCHAR
STARTCHAR D
ENCODING 68
SWIDTH 833 0
DWIDTH 10 0
BBX 8 9 0 0
VVECTOR 4 9
SWIDTH1 0 -1000
DWIDTH1 0 -12
BITMAP 
FC
82
81
81
81
81
81
82
FC
ENDCHAR
STARTCHAR E
ENCODING 69
SWIDTH 750 0
DWIDTH 9 0
BBX 8 9 0 0
VVECTOR 4 9
SWIDTH1 0 -1000
DWIDTH1 0 -12
BITMAP 
3E
41
80
80
F0
80
80
41
3E
ENDCHAR
STARTCHAR F
ENCODING 70
SWIDTH 750 0
DWIDTH 9 0
BBX 8 9 0 0
VVECTOR 4 9
SWIDTH1 0 -1000
DWIDTH1 0 -12
BITMAP 
3E
41
80
80
F0
80
80
80
80
ENDCHAR
STARTCHAR G
ENCODING 71
SWIDTH 833 0
DWIDTH 10 0
BBX 8 9 0 0
VVECTOR 4 9
SWIDTH1 0 -1000
DWIDTH1 0 -12
BITMAP 
3C
42
80
80
87
81
81
41
3F
ENDCHAR
STARTCHAR H
ENCODING 72
SWIDTH 833 0
DWIDTH 10 0
BBX 8 9 0 0
VVECTOR 4 9
SWIDTH1 0 -1000
DWIDTH1 0 -12
BITMAP 
81
81
81
81
FF
81
81
81
81
ENDCHAR
STARTCHAR I
ENCODING 73
SWIDTH 750 0
DWIDTH 9 0
BBX 5 9 1 0
VVECTOR 4 9
SWIDTH1 0 -1000
DWIDTH1 0 -12
BITMAP 
F8
20
20
20
20
20
20
20
F8
ENDCHAR
STARTCHAR J
ENCODING 74
SWIDTH 750 0
DWIDTH 9 0
BBX 7 9 0 0
VVECTOR 4 9
SWIDTH1 0 -1000
DWIDTH1 0 -12
BITMAP 
02
02
02
02
02
02
82
42
3E
ENDCHAR
STARTCHAR K
ENCODING 75
SWIDTH 750 0
DWIDTH 9 0
BBX 8 9 0 0
VVECTOR 4 9
SWIDTH1 0 -1000
DWIDTH1 0 -12
BITMAP 
82
84
88
90
B0
C8
84
82
81
ENDCHAR
STARTCHAR L
ENCODING 76
SWIDTH 750 0
DWIDTH 9 0
BBX 8 9 0 0
VVECTOR 4 9
SWIDTH1 0 -1000
DWIDTH1 0 -12
BITMAP 
80
80
80
80
80
80
80
80
FF
ENDCHAR
STARTCHAR M
ENCODING 77
SWIDTH 1083 0
DWIDTH 13 0
BBX 11 9 0 0
VVECTOR 6 9
SWIDTH1 0 -1000
DWIDTH1 0 -12
BITMAP 
B180
CA40
8420
8420
8420
8420
8420
8420
8420
ENDCHAR
STARTCHAR N
ENCODING 78
SWIDTH 833 0
DWIDTH 10 0
BBX 8 9 0 0
VVECTOR 4 9
SWIDTH1 0 -1000
DWIDTH1 0 -12
BITMAP 
C1
A1
91
89
85
83
81
81
81
ENDCHAR
STARTCHAR O
ENCODING 79
SWIDTH 917 0
DWIDTH 11 0
BBX 9 9 0 0
VVECTOR 5 9
SWIDTH1 0 -1000
DWIDTH1 0 -12
BITMAP 
3E00
4100
8080
8080
8080
8080
8080
4100
3E00
ENDCHAR
STARTCHAR P
ENCODING 80
SWIDTH 750 0
DWIDTH 9 0
BBX 8 9 0 0
VVECTOR 4 9
SWIDTH1 0 -1000
DWIDTH1 0 -12
BITMAP 
FC
82
81
82
FC
80
80
80
80
ENDCHAR
STARTCHAR Q
ENCODING 81
SWIDTH 833 0
DWIDTH 10 0
BBX 8 9 0 0
VVECTOR 4 9
SWIDTH1 0 -1000
DWIDTH1 0 -12
BITMAP 
3C
42
81
81
81
89
85
42
3D
ENDCHAR
STARTCHAR R
ENCODING 82
SWIDTH 750 0
DWIDTH 9 0
BBX 8 9 0 0
VVECTOR 4 9
SWIDTH1 0 -1000
DWIDTH1 0 -12
BITMAP 
FC
82
81
82
FC
82
81
81
81
ENDCHAR
STARTCHAR S
ENCODING 83
SWIDTH 833 0
DWIDTH 10 0
BBX 8 9 1 0
VVECTOR 5 9
SWIDTH1 0 -1000
DWIDTH1 0 -12
BITMAP 
3C
42
80
40
3C
02
01
82
7C
ENDCHAR
STARTCHAR T
ENCODING 84
SWIDTH 833 0
DWIDTH 10 0
BBX 9 9 0 0
VVECTOR 5 9
SWIDTH1 0 -1000
DWIDTH1 0 -12
BITMAP 
FF80
0800
0800
0800
0800
0800
0800
0800
0800
ENDCHAR
STARTCHAR U
ENCODING 85
SWIDTH 833 0
DWIDTH 10 0
BBX 8 9 0 0
VVECTOR 4 9
SWIDTH1 0 -1000
DWIDTH1 0 -12
BITMAP 
81
81
81
81
81
81
83
45
39
ENDCHAR
STARTCHAR V
ENCODING 86
SWIDTH 833 0
DWIDTH 10 0
BBX 9 9 0 0
VVECTOR 5 9
SWIDTH1 0 -1000
DWIDTH1 0 -12
BITMAP 
8080
8080
8080
8080
8080
4100
2200
1400
0800
ENDCHAR
STARTCHAR W
ENCODING 87
SWIDTH 1000 0
DWIDTH 12 0
BBX 11 9 0 0
VVECTOR 6 9
SWIDTH1 0 -1000
DWIDTH1 0 -12
BITMAP 
8420
8420
8420
8420
8420
8420
8420
4A40
3180
ENDCHAR
STARTCHAR X
ENCODING 88
SWIDTH 750 0
DWIDTH 9 0
BBX 8 9 0 0
VVECTOR 4 9
SWIDTH1 0 -1000
DWIDTH1 0 -12
BITMAP 
81
42
24
18
24
42
81
81
81
ENDCHAR
STARTCHAR Y
ENCODING 89
SWIDTH 833 0
DWIDTH 10 0
BBX 9 9 0 0
VVECTOR 5 9
SWIDTH1 0 -1000
DWIDTH1 0 -12
BITMAP 
8080
4100
2200
1400
0800
0800
0800
0800
0800
ENDCHAR
STARTCHAR Z
ENCODING 90
SWIDTH 750 0
DWIDTH 9 0
BBX 8 9 0 0
VVECTOR 4 9
SWIDTH1 0 -1000
DWIDTH1 0 -12
BITMAP 
FF
02
04
08
10
20
40
80
FF
ENDCHAR
STARTCHAR bracketleft
ENCODING 91
SWIDTH 500 0
DWIDTH 6 0
BBX 4 11 0 -2
VVECTOR 2 9
SWIDTH1 0 -1000
DWIDTH1 0 -12
BITMAP 
F0
80
80
80
80
80
80
80
80
80
F0
ENDCHAR
STARTCHAR backslash
ENCODING 92
SWIDTH 917 0
DWIDTH 11 0
BBX 9 9 0 0
VVECTOR 5 9
SWIDTH1 0 -1000
DWIDTH1 0 -12
BITMAP 
8000
4000
2000
1000
0800
0400
0200
0100
0080
ENDCHAR
STARTCHAR bracketright
ENCODING 93
SWIDTH 500 0
DWIDTH 6 0
BBX 4 11 0 -2
VVECTOR 2 9
SWIDTH1 0 -1000
DWIDTH1 0 -12
BITMAP 
F0
10
10
10
10
10
10
10
10
10
F0
ENDCHAR
STARTCHAR asciicircum
ENCODING 94
SWIDTH 750 0
DWIDTH 9 0
BBX 5 3 2 6
VVECTOR 5 9
SWIDTH1 0 -1000
DWIDTH1 0 -12
BITMAP 
20
50
88
ENDCHAR
STARTCHAR underscore
ENCODING 95
SWIDTH 1000 0
DWIDTH 12 0
BBX 12 1 0 -2
VVECTOR 6 9
SWIDTH1 0 -1000
DWIDTH1 0 -12
BITMAP 
FFF0
ENDCHAR
STARTCHAR grave
ENCODING 96
SWIDTH 417 0
DWIDTH 5 0
BBX 2 3 1 6
VVECTOR 2 9
SWIDTH1 0 -1000
DWIDTH1 0 -12
BITMAP 
80
80
40
ENDCHAR
STARTCHAR a
ENCODING 97
SWIDTH 750 0
DWIDTH 9 0
BBX 8 7 0 0
VVECTOR 4 9
SWIDTH1 0 -1000
DWIDTH1 0 -12
BITMAP 
3E
41
81
81
81
43
3D
ENDCHAR
STARTCHAR b
ENCODING 98
SWIDTH 750 0
DWIDTH 9 0
BBX 8 9 0 0
VVECTOR 4 9
SWIDTH1 0 -1000
DWIDTH1 0 -12
BITMAP 
80
80
BC
C2
81
81
81
42
3C
ENDCHAR
STARTCHAR c
ENCODING 99
SWIDTH 750 0
DWIDTH 9 0
BBX 8 7 0 0
VVECTOR 4 9
SWIDTH1 0 -1000
DWIDTH1 0 -12
BITMAP 
3E
41
80
80
80
41
3E
ENDCHAR
STARTCHAR d
ENCODING 100
SWIDTH 750 0
DWIDTH 9 0
BBX 8 9 0 0
VVECTOR 4 9
SWIDTH1 0 -1000
DWIDTH1 0 -12
BITMAP 
01
01
3D
43
81
81
81
42
3C
ENDCHAR
STARTCHAR e
ENCODING 101
SWIDTH 750 0
DWIDTH 9 0
BBX 8 7 0 0
VVECTOR 4 9
SWIDTH1 0 -1000
DWIDTH1 0 -12
BITMAP 
38
44
88
90
A1
42
3C
ENDCHAR
STARTCHAR f
ENCODING 102
SWIDTH 667 0
DWIDTH 8 0
BBX 5 9 1 0
VVECTOR 4 9
SWIDTH1 0 -1000
DWIDTH1 0 -12
BITMAP 
18
20
40
F8
40
40
40
40
40
ENDCHAR
STARTCHAR g
ENCODING 103
SWIDTH 833 0
DWIDTH 10 0
BBX 9 9 0 -2
VVECTOR 5 9
SWIDTH1 0 -1000
DWIDTH1 0 -12
BITMAP 
1E80
2100
1E00
4200
8100
8100
8100
4200
3C00
ENDCHAR
STARTCHAR h
ENCODING 104
SWIDTH 750 0
DWIDTH 9 0
BBX 8 9 0 0
VVECTOR 4 9
SWIDTH1 0 -1000
DWIDTH1 0 -12
BITMAP 
80
80
BC
C2
81
81
81
81
81
ENDCHAR
STARTCHAR i
ENCODING 105
SWIDTH 583 0
DWIDTH 7 0
BBX 1 9 2 0
VVECTOR 3 9
SWIDTH1 0 -1000
DWIDTH1 0 -12
BITMAP 
80
00
80
80
80
80
80
80
80
ENDCHAR
STARTCHAR j
ENCODING 106
SWIDTH 667 0
DWIDTH 8 0
BBX 7 11 0 -2
VVECTOR 4 9
SWIDTH1 0 -1000
DWIDTH1 0 -12
BITMAP 
02
00
02
02
02
02
02
02
82
44
38
ENDCHAR
STARTCHAR k
ENCODING 107
SWIDTH 667 0
DWIDTH 8 0
BBX 7 9 0 0
VVECTOR 4 9
SWIDTH1 0 -1000
DWIDTH1 0 -12
BITMAP 
80
80
82
84
88
90
A8
C4
82
ENDCHAR
STARTCHAR l
ENCODING 108
SWIDTH 583 0
DWIDTH 7 0
BBX 1 9 2 0
VVECTOR 3 9
SWIDTH1 0 -1000
DWIDTH1 0 -12
BITMAP 
80
80
80
80
80
80
80
80
80
ENDCHAR
STARTCHAR m
ENCODING 109
SWIDTH 833 0
DWIDTH 10 0
BBX 9 7 0 0
VVECTOR 5 9
SWIDTH1 0 -1000
DWIDTH1 0 -12
BITMAP 
A200
D500
8880
8880
8880
8880
8880
ENDCHAR
STARTCHAR n
ENCODING 110
SWIDTH 750 0
DWIDTH 9 0
BBX 8 7 0 0
VVECTOR 4 9
SWIDTH1 0 -1000
DWIDTH1 0 -12
BITMAP 
BC
C2
81
81
81
81
81
ENDCHAR
STARTCHAR o
ENCODING 111
SWIDTH 750 0
DWIDTH 9 0
BBX 8 7 0 0
VVECTOR 4 9
SWIDTH1 0 -1000
DWIDTH1 0 -12
BITMAP 
3C
42
81
81
81
42
3C
ENDCHAR
STARTCHAR p
ENCODING 112
SWIDTH 667 0
DWIDTH 8 0
BBX 7 9 0 -2
VVECTOR 4 9
SWIDTH1 0 -1000
DWIDTH1 0 -12
BITMAP 
F8
84
82
82
82
84
F8
80
80
ENDCHAR
STARTCHAR q
ENCODING 113
SWIDTH 667 0
DWIDTH 8 0
BBX 7 9 0 -2
VVECTOR 4 9
SWIDTH1 0 -1000
DWIDTH1 0 -12
BITMAP 
3E
42
82
82
82
42
3E
02
02
ENDCHAR
STARTCHAR r
ENCODING 114
SWIDTH 667 0
DWIDTH 8 0
BBX 7 7 0 0
VVECTOR 4 9
SWIDTH1 0 -1000
DWIDTH1 0 -12
BITMAP 
BC
C2
80
80
80
80
80
ENDCHAR
STARTCHAR s
ENCODING 115
SWIDTH 667 0
DWIDTH 8 0
BBX 7 7 0 0
VVECTOR 4 9
SWIDTH1 0 -1000
DWIDTH1 0 -12
BITMAP 
7C
82
80
7C
02
82
7C
ENDCHAR
STARTCHAR t
ENCODING 116
SWIDTH 667 0
DWIDTH 8 0
BBX 5 9 1 0
VVECTOR 4 9
SWIDTH1 0 -1000
DWIDTH1 0 -12
BITMAP 
40
40
F8
40
40
40
40
40
40
ENDCHAR
STARTCHAR u
ENCODING 117
SWIDTH 750 0
DWIDTH 9 0
BBX 8 7 0 0
VVECTOR 4 9
SWIDTH1 0 -1000
DWIDTH1 0 -12
BITMAP 
81
81
81
81
81
43
3D
ENDCHAR
STARTCHAR v
ENCODING 118
SWIDTH 667 0
DWIDTH 8 0
BBX 7 7 0 0
VVECTOR 4 9
SWIDTH1 0 -1000
DWIDTH1 0 -12
BITMAP 
82
82
82
82
44
28
10
ENDCHAR
STARTCHAR w
ENCODING 119
SWIDTH 833 0
DWIDTH 10 0
BBX 9 7 0 0
VVECTOR 5 9
SWIDTH1 0 -1000
DWIDTH1 0 -12
BITMAP 
8880
8880
8880
8880
8880
5500
2200
ENDCHAR
STARTCHAR x
ENCODING 120
SWIDTH 667 0
DWIDTH 8 0
BBX 7 7 0 0
VVECTOR 4 9
SWIDTH1 0 -1000
DWIDTH1 0 -12
BITMAP 
82
44
28
10
28
44
82
ENDCHAR
STARTCHAR y
ENCODING 121
SWIDTH 667 0
DWIDTH 8 0
BBX 7 9 0 -2
VVECTOR 4 9
SWIDTH1 0 -1000
DWIDTH1 0 -12
BITMAP 
82
42
22
12
0A
06
82
44
38
ENDCHAR
STARTCHAR z
ENCODING 122
SWIDTH 667 0
DWIDTH 8 0
BBX 7 7 0 0
VVECTOR 4 9
SWIDTH1 0 -1000
DWIDTH1 0 -12
BITMAP 
FE
04
08
10
20
40
FE
ENDCHAR
STARTCHAR braceleft
ENCODING 123
SWIDTH 500 0
DWIDTH 6 0
BBX 5 9 0 0
VVECTOR 3 9
SWIDTH1 0 -1000
DWIDTH1 0 -12
BITMAP 
38
40
40
20
C0
20
40
40
38
ENDCHAR
STARTCHAR bar
ENCODING 124
SWIDTH 583 0
DWIDTH 7 0
BBX 1 11 2 -2
VVECTOR 3 9
SWIDTH1 0 -1000
DWIDTH1 0 -12
BITMAP 
80
80
80
80
80
80
80
80
80
80
80
ENDCHAR
STARTCHAR braceright
ENCODING 125
SWIDTH 500 0
DWIDTH 6 0
BBX 5 9 0 0
VVECTOR 3 9
SWIDTH1 0 -1000
DWIDTH1 0 -12
BITMAP 
E0
10
10
20
18
20
10
10
E0
ENDCHAR
STARTCHAR asciitilde
ENCODING 126
SWIDTH 917 0
DWIDTH 11 0
BBX 9 2 1 7
VVECTOR 6 9
SWIDTH1 0 -1000
DWIDTH1 0 -12
BITMAP 
7880
8F00
ENDCHAR
STARTCHAR char7F
ENCODING 127
SWIDTH 1000 0
DWIDTH 12 0
BBX 12 12 0 -3
VVECTOR 6 9
SWIDTH1 0 -1000
DWIDTH1 0 -12
BITMAP 
3330
CCC0
3330
CCC0
3330
CCC0
3330
CCC0
3330
CCC0
3330
CCC0
ENDCHAR
STARTCHAR char80
ENCODING 128
SWIDTH 833 0
DWIDTH 10 0
BBX 8 9 1 -1
VVECTOR 5 9
SWIDTH1 0 -1000
DWIDTH1 0 -12
BITMAP 
FF
81
81
81
81
81
81
81
FF
ENDCHAR
STARTCHAR char81
ENCODING 129
SWIDTH 833 0
DWIDTH 10 0
BBX 8 9 1 -1
VVECTOR 5 9
SWIDTH1 0 -1000
DWIDTH1 0 -12
BITMAP 
FF
81
81
81
81
81
81
81
FF
ENDCHAR
STARTCHAR char82
ENCODING 130
SWIDTH 833 0
DWIDTH 10 0
BBX 8 9 1 -1
VVECTOR 5 9
SWIDTH1 0 -1000
DWIDTH1 0 -12
BITMAP 
FF
81
81
81
81
81
81
81
FF
ENDCHAR
STARTCHAR char83
ENCODING 131
SWIDTH 833 0
DWIDTH 10 0
BBX 8 9 1 -1
VVECTOR 5 9
SWIDTH1 0 -1000
DWIDTH1 0 -12
BITMAP 
FF
81
81
81
81
81
81
81
FF
ENDCHAR
STARTCHAR char84
ENCODING 132
SWIDTH 833 0
DWIDTH 10 0
BBX 8 9 1 -1
VVECTOR 5 9
SWIDTH1 0 -1000
DWIDTH1 0 -12
BITMAP 
FF
81
81
81
81
81
81
81
FF
ENDCHAR
STARTCHAR char85
ENCODING 133
SWIDTH 833 0
DWIDTH 10 0
BBX 8 9 1 -1
VVECTOR 5 9
SWIDTH1 0 -1000
DWIDTH1 0 -12
BITMAP 
FF
81
81
81
81
81
81
81
FF
ENDCHAR
STARTCHAR char86
ENCODING 134
SWIDTH 833 0
DWIDTH 10 0
BBX 8 9 1 -1
VVECTOR 5 9
SWIDTH1 0 -1000
DWIDTH1 0 -12
BITMAP 
FF
81
81
81
81
81
81
81
FF
ENDCHAR
STARTCHAR char87
ENCODING 135
SWIDTH 833 0
DWIDTH 10 0
BBX 8 9 1 -1
VVECTOR 5 9
SWIDTH1 0 -1000
DWIDTH1 0 -12
BITMAP 
FF
81
81
81
81
81
81
81
FF
ENDCHAR
STARTCHAR char88
ENCODING 136
SWIDTH 833 0
DWIDTH 10 0
BBX 8 9 1 -1
VVECTOR 5 9
SWIDTH1 0 -1000
DWIDTH1 0 -12
BITMAP 
FF
81
81
81
81
81
81
81
FF
ENDCHAR
STARTCHAR char89
ENCODING 137
SWIDTH 833 0
DWIDTH 10 0
BBX 8 9 1 -1
VVECTOR 5 9
SWIDTH1 0 -1000
DWIDTH1 0 -12
BITMAP 
FF
81
81
81
81
81
81
81
FF
ENDCHAR
STARTCHAR char8A
ENCODING 138
SWIDTH 833 0
DWIDTH 10 0
BBX 8 9 1 -1
VVECTOR 5 9
SWIDTH1 0 -1000
DWIDTH1 0 -12
BITMAP 
FF
81
81
81
81
81
81
81
FF
ENDCHAR
STARTCHAR char8B
ENCODING 139
SWIDTH 833 0
DWIDTH 10 0
BBX 8 9 1 -1
VVECTOR 5 9
SWIDTH1 0 -1000
DWIDTH1 0 -12
BITMAP 
FF
81
81
81
81
81
81
81
FF
ENDCHAR
STARTCHAR char8C
ENCODING 140
SWIDTH 833 0
DWIDTH 10 0
BBX 8 9 1 -1
VVECTOR 5 9
SWIDTH1 0 -1000
DWIDTH1 0 -12
BITMAP 
FF
81
81
81
81
81
81
81
FF
ENDCHAR
STARTCHAR char8D
ENCODING 141
SWIDTH 833 0
DWIDTH 10 0
BBX 8 9 1 -1
VVECTOR 5 9
SWIDTH1 0 -1000
DWIDTH1 0 -12
BITMAP 
FF
81
81
81
81
81
81
81
FF
ENDCHAR
STARTCHAR char8E
ENCODING 142
SWIDTH 833 0
DWIDTH 10 0
BBX 8 9 1 -1
VVECTOR 5 9
SWIDTH1 0 -1000
DWIDTH1 0 -12
BITMAP 
FF
81
81
81
81
81
81
81
FF
ENDCHAR
STARTCHAR char8F
ENCODING 143
SWIDTH 833 0
DWIDTH 10 0
BBX 8 9 1 -1
VVECTOR 5 9
SWIDTH1 0 -1000
DWIDTH1 0 -12
BITMAP 
FF
81
81
81
81
81
81
81
FF
ENDCHAR
STARTCHAR char90
ENCODING 144
SWIDTH 833 0
DWIDTH 10 0
BBX 8 9 1 -1
VVECTOR 5 9
SWIDTH1 0 -1000
DWIDTH1 0 -12
BITMAP 
FF
81
81
81
81
81
81
81
FF
ENDCHAR
STARTCHAR char91
ENCODING 145
SWIDTH 833 0
DWIDTH 10 0
BBX 8 9 1 -1
VVECTOR 5 9
SWIDTH1 0 -1000
DWIDTH1 0 -12
BITMAP 
FF
81
81
81
81
81
81
81
FF
ENDCHAR
STARTCHAR char92
ENCODING 146
SWIDTH 833 0
DWIDTH 10 0
BBX 8 9 1 -1
VVECTOR 5 9
SWIDTH1 0 -1000
DWIDTH1 0 -12
BITMAP 
FF
81
81
81
81
81
81
81
FF
ENDCHAR
STARTCHAR char93
ENCODING 147
SWIDTH 833 0
DWIDTH 10 0
BBX 8 9 1 -1
VVECTOR 5 9
SWIDTH1 0 -1000
DWIDTH1 0 -12
BITMAP 
FF
81
81
81
81
81
81
81
FF
ENDCHAR
STARTCHAR char94
ENCODING 148
SWIDTH 833 0
DWIDTH 10 0
BBX 8 9 1 -1
VVECTOR 5 9
SWIDTH1 0 -1000
DWIDTH1 0 -12
BITMAP 
FF
81
81
81
81
81
81
81
FF
ENDCHAR
STARTCHAR char95
ENCODING 149
SWIDTH 833 0
DWIDTH 10 0
BBX 8 9 1 -1
VVECTOR 5 9
SWIDTH1 0 -1000
DWIDTH1 0 -12
BITMAP 
FF
81
81
81
81
81
81
81
FF
ENDCHAR
STARTCHAR char96
ENCODING 150
SWIDTH 833 0
DWIDTH 10 0
BBX 8 9 1 -1
VVECTOR 5 9
SWIDTH1 0 -1000
DWIDTH1 0 -12
BITMAP 
FF
81
81
81
81
81
81
81
FF
ENDCHAR
STARTCHAR char97
ENCODING 151
SWIDTH 833 0
DWIDTH 10 0
BBX 8 9 1 -1
VVECTOR 5 9
SWIDTH1 0 -1000
DWIDTH1 0 -12
BITMAP 
FF
81
81
81
81
81
81
81
FF
ENDCHAR
STARTCHAR char98
ENCODING 152
SWIDTH 833 0
DWIDTH 10 0
BBX 8 9 1 -1
VVECTOR 5 9
SWIDTH1 0 -1000
DWIDTH1 0 -12
BITMAP 
FF
81
81
81
81
81
81
81
FF
ENDCHAR
STARTCHAR char99
ENCODING 153
SWIDTH 833 0
DWIDTH 10 0
BBX 8 9 1 -1
VVECTOR 5 9
SWIDTH1 0 -1000
DWIDTH1 0 -12
BITMAP 
FF
81
81
81
81
81
81
81
FF
ENDCHAR
STARTCHAR char9A
ENCODING 154
SWIDTH 833 0
DWIDTH 10 0
BBX 8 9 1 -1
VVECTOR 5 9
SWIDTH1 0 -1000
DWIDTH1 0 -12
BITMAP 
FF
81
81
81
81
81
81
81
FF
ENDCHAR
STARTCHAR char9B
ENCODING 155
SWIDTH 833 0
DWIDTH 10 0
BBX 8 9 1 -1
VVECTOR 5 9
SWIDTH1 0 -1000
DWIDTH1 0 -12
BITMAP 
FF
81
81
81
81
81
81
81
FF
ENDCHAR
STARTCHAR char9C
ENCODING 156
SWIDTH 833 0
DWIDTH 10 0
BBX 8 9 1 -1
VVECTOR 5 9
SWIDTH1 0 -1000
DWIDTH1 0 -12
BITMAP 
FF
81
81
81
81
81
81
81
FF
ENDCHAR
STARTCHAR char9D
ENCODING 157
SWIDTH 833 0
DWIDTH 10 0
BBX 8 9 1 -1
VVECTOR 5 9
SWIDTH1 0 -1000
DWIDTH1 0 -12
BITMAP 
FF
81
81
81
81
81
81
81
FF
ENDCHAR
STARTCHAR char9E
ENCODING 158
SWIDTH 917 0
DWIDTH 11 0
BBX 0 0 11 -3
VVECTOR 11 -3
SWIDTH1 0 0
DWIDTH1 0 0
BITMAP 
ENDCHAR
STARTCHAR char9F
ENCODING 159
SWIDTH 833 0
DWIDTH 10 0
BBX 8 9 1 -1
VVECTOR 5 9
SWIDTH1 0 -1000
DWIDTH1 0 -12
BITMAP 
FF
81
81
81
81
81
81
81
FF
ENDCHAR
STARTCHAR uni00A0
ENCODING 160
SWIDTH 833 0
DWIDTH 10 0
BBX 8 9 1 -1
VVECTOR 5 9
SWIDTH1 0 -1000
DWIDTH1 0 -12
BITMAP 
FF
81
81
81
81
81
81
81
FF
ENDCHAR
STARTCHAR exclamdown
ENCODING 161
SWIDTH 417 0
DWIDTH 5 0
BBX 2 9 1 0
VVECTOR 2 9
SWIDTH1 0 -1000
DWIDTH1 0 -12
BITMAP 
C0
00
C0
C0
C0
C0
C0
C0
C0
ENDCHAR
STARTCHAR cent
ENCODING 162
SWIDTH 833 0
DWIDTH 10 0
BBX 8 8 0 0
VVECTOR 4 9
SWIDTH1 0 -1000
DWIDTH1 0 -12
BITMAP 
14
36
55
94
94
55
36
14
ENDCHAR
STARTCHAR sterling
ENCODING 163
SWIDTH 917 0
DWIDTH 11 0
BBX 10 9 0 0
VVECTOR 5 9
SWIDTH1 0 -1000
DWIDTH1 0 -12
BITMAP 
1C00
2200
2000
2000
FC00
2000
2000
2000
7FC0
ENDCHAR
STARTCHAR currency
ENCODING 164
SWIDTH 750 0
DWIDTH 9 0
BBX 8 8 0 0
VVECTOR 4 9
SWIDTH1 0 -1000
DWIDTH1 0 -12
BITMAP 
42
3C
42
81
81
42
3C
42
ENDCHAR
STARTCHAR yen
ENCODING 165
SWIDTH 833 0
DWIDTH 10 0
BBX 9 9 0 0
VVECTOR 5 9
SWIDTH1 0 -1000
DWIDTH1 0 -12
BITMAP 
8080
4100
2200
1400
0800
0800
3E00
0800
0800
ENDCHAR
STARTCHAR brokenbar
ENCODING 166
SWIDTH 500 0
DWIDTH 6 0
BBX 1 9 2 0
VVECTOR 3 9
SWIDTH1 0 -1000
DWIDTH1 0 -12
BITMAP 
80
80
80
80
00
80
80
80
80
ENDCHAR
STARTCHAR section
ENCODING 167
SWIDTH 750 0
DWIDTH 9 0
BBX 8 10 0 -1
VVECTOR 4 9
SWIDTH1 0 -1000
DWIDTH1 0 -12
BITMAP 
3E
40
3C
42
81
81
42
3C
02
7C
ENDCHAR
STARTCHAR dieresis
ENCODING 168
SWIDTH 667 0
DWIDTH 8 0
BBX 7 1 0 8
VVECTOR 4 9
SWIDTH1 0 -1000
DWIDTH1 0 -12
BITMAP 
C6
ENDCHAR
STARTCHAR copyright
ENCODING 169
SWIDTH 917 0
DWIDTH 11 0
BBX 10 8 0 0
VVECTOR 5 9
SWIDTH1 0 -1000
DWIDTH1 0 -12
BITMAP 
3F00
4080
8E40
9040
9040
8E40
4080
3F00
ENDCHAR
STARTCHAR ordfeminine
ENCODING 170
SWIDTH 750 0
DWIDTH 9 0
BBX 8 7 0 2
VVECTOR 4 9
SWIDTH1 0 -1000
DWIDTH1 0 -12
BITMAP 
3E
41
81
43
3D
00
FF
ENDCHAR
STARTCHAR guillemotleft
ENCODING 171
SWIDTH 750 0
DWIDTH 9 0
BBX 8 9 0 0
VVECTOR 4 9
SWIDTH1 0 -1000
DWIDTH1 0 -12
BITMAP 
09
12
24
48
90
48
24
12
09
ENDCHAR
STARTCHAR logicalnot
ENCODING 172
SWIDTH 917 0
DWIDTH 11 0
BBX 7 3 0 6
VVECTOR 4 9
SWIDTH1 0 -1000
DWIDTH1 0 -12
BITMAP 
FE
02
02
ENDCHAR
STARTCHAR uni00AD
ENCODING 173
SWIDTH 917 0
DWIDTH 11 0
BBX 7 1 0 3
VVECTOR 4 9
SWIDTH1 0 -1000
DWIDTH1 0 -12
BITMAP 
FE
ENDCHAR
STARTCHAR registered
ENCODING 174
SWIDTH 917 0
DWIDTH 11 0
BBX 11 10 0 -2
VVECTOR 6 9
SWIDTH1 0 -1000
DWIDTH1 0 -12
BITMAP 
3F80
4040
9E20
9120
9120
9E20
9120
90A0
4040
3F80
ENDCHAR
STARTCHAR macron
ENCODING 175
SWIDTH 917 0
DWIDTH 11 0
BBX 7 1 0 8
VVECTOR 4 9
SWIDTH1 0 -1000
DWIDTH1 0 -12
BITMAP 
FE
ENDCHAR
STARTCHAR degree
ENCODING 176
SWIDTH 833 0
DWIDTH 10 0
BBX 8 4 0 5
VVECTOR 4 9
SWIDTH1 0 -1000
DWIDTH1 0 -12
BITMAP 
7E
81
81
7E
ENDCHAR
STARTCHAR plusminus
ENCODING 177
SWIDTH 917 0
DWIDTH 11 0
BBX 9 6 0 2
VVECTOR 5 9
SWIDTH1 0 -1000
DWIDTH1 0 -12
BITMAP 
0800
0800
FF80
0800
0800
FF80
ENDCHAR
STARTCHAR uni00B2
ENCODING 178
SWIDTH 583 0
DWIDTH 7 0
BBX 5 5 0 4
VVECTOR 3 9
SWIDTH1 0 -1000
DWIDTH1 0 -12
BITMAP 
70
88
10
20
F8
ENDCHAR
STARTCHAR uni00B3
ENCODING 179
SWIDTH 500 0
DWIDTH 6 0
BBX 4 5 0 4
VVECTOR 2 9
SWIDTH1 0 -1000
DWIDTH1 0 -12
BITMAP 
E0
10
20
10
E0
ENDCHAR
STARTCHAR acute
ENCODING 180
SWIDTH 417 0
DWIDTH 5 0
BBX 3 3 0 6
VVECTOR 2 9
SWIDTH1 0 -1000
DWIDTH1 0 -12
BITMAP 
20
40
80
ENDCHAR
STARTCHAR mu
ENCODING 181
SWIDTH 917 0
DWIDTH 11 0
BBX 9 9 0 -2
VVECTOR 5 9
SWIDTH1 0 -1000
DWIDTH1 0 -12
BITMAP 
8100
8100
8100
8100
8100
C300
BD80
8000
8000
ENDCHAR
STARTCHAR paragraph
ENCODING 182
SWIDTH 917 0
DWIDTH 11 0
BBX 9 9 0 0
VVECTOR 5 9
SWIDTH1 0 -1000
DWIDTH1 0 -12
BITMAP 
3F80
4900
8900
4900
3900
0900
0900
0900
0F00
ENDCHAR
STARTCHAR periodcentered
ENCODING 183
SWIDTH 417 0
DWIDTH 5 0
BBX 4 3 0 2
VVECTOR 2 9
SWIDTH1 0 -1000
DWIDTH1 0 -12
BITMAP 
F0
F0
F0
ENDCHAR
STARTCHAR cedilla
ENCODING 184
SWIDTH 583 0
DWIDTH 7 0
BBX 2 2 2 -2
VVECTOR 3 9
SWIDTH1 0 -1000
DWIDTH1 0 -12
BITMAP 
40
80
ENDCHAR
STARTCHAR uni00B9
ENCODING 185
SWIDTH 500 0
DWIDTH 6 0
BBX 2 5 1 4
VVECTOR 2 9
SWIDTH1 0 -1000
DWIDTH1 0 -12
BITMAP 
40
C0
40
40
40
ENDCHAR
STARTCHAR ordmasculine
ENCODING 186
SWIDTH 917 0
DWIDTH 11 0
BBX 8 7 0 2
VVECTOR 4 9
SWIDTH1 0 -1000
DWIDTH1 0 -12
BITMAP 
3C
42
81
42
3C
00
FF
ENDCHAR
STARTCHAR guillemotright
ENCODING 187
SWIDTH 917 0
DWIDTH 11 0
BBX 8 9 0 0
VVECTOR 4 9
SWIDTH1 0 -1000
DWIDTH1 0 -12
BITMAP 
90
48
24
12
09
12
24
48
90
ENDCHAR
STARTCHAR onequarter
ENCODING 188
SWIDTH 917 0
DWIDTH 11 0
BBX 10 9 0 0
VVECTOR 5 9
SWIDTH1 0 -1000
DWIDTH1 0 -12
BITMAP 
4080
C100
4200
44C0
4940
1240
27C0
4040
8040
ENDCHAR
STARTCHAR onehalf
ENCODING 189
SWIDTH 1000 0
DWIDTH 12 0
BBX 11 9 0 0
VVECTOR 6 9
SWIDTH1 0 -1000
DWIDTH1 0 -12
BITMAP 
4080
C100
4200
4400
49C0
1220
2040
4080
83E0
ENDCHAR
STARTCHAR threequarters
ENCODING 190
SWIDTH 1000 0
DWIDTH 12 0
BBX 11 9 0 0
VVECTOR 6 9
SWIDTH1 0 -1000
DWIDTH1 0 -12
BITMAP 
E040
1080
2100
1260
E4A0
0920
13E0
2020
4020
ENDCHAR
STARTCHAR questiondown
ENCODING 191
SWIDTH 833 0
DWIDTH 10 0
BBX 7 9 1 0
VVECTOR 5 9
SWIDTH1 0 -1000
DWIDTH1 0 -12
BITMAP 
10
00
10
10
20
40
82
44
38
ENDCHAR
STARTCHAR Agrave
ENCODING 192
SWIDTH 833 0
DWIDTH 10 0
BBX 8 9 0 0
VVECTOR 4 9
SWIDTH1 0 -1000
DWIDTH1 0 -12
BITMAP 
0C
02
0F
11
21
41
83
85
79
ENDCHAR
STARTCHAR Aacute
ENCODING 193
SWIDTH 833 0
DWIDTH 10 0
BBX 8 9 0 0
VVECTOR 4 9
SWIDTH1 0 -1000
DWIDTH1 0 -12
BITMAP 
03
04
0F
11
21
41
83
85
79
ENDCHAR
STARTCHAR Acircumflex
ENCODING 194
SWIDTH 833 0
DWIDTH 10 0
BBX 8 9 0 0
VVECTOR 4 9
SWIDTH1 0 -1000
DWIDTH1 0 -12
BITMAP 
04
0A
0F
11
21
41
83
85
79
ENDCHAR
STARTCHAR Atilde
ENCODING 195
SWIDTH 1000 0
DWIDTH 12 0
BBX 10 9 0 0
VVECTOR 5 9
SWIDTH1 0 -1000
DWIDTH1 0 -12
BITMAP 
1E40
2380
0F00
1100
2100
4100
8300
8500
7900
ENDCHAR
STARTCHAR Adieresis
ENCODING 196
SWIDTH 1000 0
DWIDTH 12 0
BBX 11 9 0 0
VVECTOR 6 9
SWIDTH1 0 -1000
DWIDTH1 0 -12
BITMAP 
6060
0F00
1100
2100
4100
8100
8300
8500
7900
ENDCHAR
STARTCHAR Aring
ENCODING 197
SWIDTH 833 0
DWIDTH 10 0
BBX 9 9 0 0
VVECTOR 5 9
SWIDTH1 0 -1000
DWIDTH1 0 -12
BITMAP 
0F00
1080
0F00
1100
2100
4100
8300
8500
7900
ENDCHAR
STARTCHAR AE
ENCODING 198
SWIDTH 1000 0
DWIDTH 12 0
BBX 11 9 0 0
VVECTOR 6 9
SWIDTH1 0 -1000
DWIDTH1 0 -12
BITMAP 
0DC0
1220
2200
4200
83C0
8200
8600
8A20
79C0
ENDCHAR
STARTCHAR Ccedilla
ENCODING 199
SWIDTH 833 0
DWIDTH 10 0
BBX 8 11 0 -2
VVECTOR 4 9
SWIDTH1 0 -1000
DWIDTH1 0 -12
BITMAP 
3E
41
80
80
80
80
80
41
3E
08
10
ENDCHAR
STARTCHAR Egrave
ENCODING 200
SWIDTH 750 0
DWIDTH 9 0
BBX 8 9 0 0
VVECTOR 4 9
SWIDTH1 0 -1000
DWIDTH1 0 -12
BITMAP 
30
08
3E
41
80
F0
80
41
3E
ENDCHAR
STARTCHAR Eacute
ENCODING 201
SWIDTH 750 0
DWIDTH 9 0
BBX 8 9 0 0
VVECTOR 4 9
SWIDTH1 0 -1000
DWIDTH1 0 -12
BITMAP 
06
08
3E
41
80
F0
80
41
3E
ENDCHAR
STARTCHAR Ecircumflex
ENCODING 202
SWIDTH 750 0
DWIDTH 9 0
BBX 8 9 0 0
VVECTOR 4 9
SWIDTH1 0 -1000
DWIDTH1 0 -12
BITMAP 
08
14
3E
41
80
F0
80
41
3E
ENDCHAR
STARTCHAR Edieresis
ENCODING 203
SWIDTH 750 0
DWIDTH 9 0
BBX 8 9 0 0
VVECTOR 4 9
SWIDTH1 0 -1000
DWIDTH1 0 -12
BITMAP 
63
00
3E
41
80
F0
80
41
3E
ENDCHAR
STARTCHAR Igrave
ENCODING 204
SWIDTH 667 0
DWIDTH 8 0
BBX 5 9 1 0
VVECTOR 4 9
SWIDTH1 0 -1000
DWIDTH1 0 -12
BITMAP 
C0
20
F8
20
20
20
20
20
F8
ENDCHAR
STARTCHAR Iacute
ENCODING 205
SWIDTH 667 0
DWIDTH 8 0
BBX 5 9 1 0
VVECTOR 4 9
SWIDTH1 0 -1000
DWIDTH1 0 -12
BITMAP 
18
20
F8
20
20
20
20
20
F8
ENDCHAR
STARTCHAR Icircumflex
ENCODING 206
SWIDTH 667 0
DWIDTH 8 0
BBX 5 9 1 0
VVECTOR 4 9
SWIDTH1 0 -1000
DWIDTH1 0 -12
BITMAP 
20
50
F8
20
20
20
20
20
F8
ENDCHAR
STARTCHAR Idieresis
ENCODING 207
SWIDTH 750 0
DWIDTH 9 0
BBX 6 9 1 0
VVECTOR 4 9
SWIDTH1 0 -1000
DWIDTH1 0 -12
BITMAP 
CC
00
F8
20
20
20
20
20
F8
ENDCHAR
STARTCHAR Eth
ENCODING 208
SWIDTH 917 0
DWIDTH 11 0
BBX 10 9 0 0
VVECTOR 5 9
SWIDTH1 0 -1000
DWIDTH1 0 -12
BITMAP 
3F00
2080
2040
2040
F840
2040
2040
2080
3F00
ENDCHAR
STARTCHAR Ntilde
ENCODING 209
SWIDTH 833 0
DWIDTH 10 0
BBX 8 9 0 0
VVECTOR 4 9
SWIDTH1 0 -1000
DWIDTH1 0 -12
BITMAP 
79
8E
C1
A1
91
89
85
83
81
ENDCHAR
STARTCHAR Ograve
ENCODING 210
SWIDTH 917 0
DWIDTH 11 0
BBX 9 9 0 0
VVECTOR 5 9
SWIDTH1 0 -1000
DWIDTH1 0 -12
BITMAP 
3000
0800
3E00
4100
8080
8080
8080
4100
3E00
ENDCHAR
STARTCHAR Oacute
ENCODING 211
SWIDTH 917 0
DWIDTH 11 0
BBX 9 9 0 0
VVECTOR 5 9
SWIDTH1 0 -1000
DWIDTH1 0 -12
BITMAP 
0600
0800
3E00
4100
8080
8080
8080
4100
3E00
ENDCHAR
STARTCHAR Ocircumflex
ENCODING 212
SWIDTH 917 0
DWIDTH 11 0
BBX 9 9 0 0
VVECTOR 5 9
SWIDTH1 0 -1000
DWIDTH1 0 -12
BITMAP 
0800
1400
3E00
4100
8080
8080
8080
4100
3E00
ENDCHAR
STARTCHAR Otilde
ENCODING 213
SWIDTH 917 0
DWIDTH 11 0
BBX 9 9 0 0
VVECTOR 5 9
SWIDTH1 0 -1000
DWIDTH1 0 -12
BITMAP 
7900
8E00
3E00
4100
8080
8080
8080
4100
3E00
ENDCHAR
STARTCHAR Odieresis
ENCODING 214
SWIDTH 917 0
DWIDTH 11 0
BBX 9 9 0 0
VVECTOR 5 9
SWIDTH1 0 -1000
DWIDTH1 0 -12
BITMAP 
3300
0000
3E00
4100
8080
8080
8080
4100
3E00
ENDCHAR
STARTCHAR multiply
ENCODING 215
SWIDTH 583 0
DWIDTH 7 0
BBX 5 5 0 2
VVECTOR 3 9
SWIDTH1 0 -1000
DWIDTH1 0 -12
BITMAP 
88
50
20
50
88
ENDCHAR
STARTCHAR Oslash
ENCODING 216
SWIDTH 917 0
DWIDTH 11 0
BBX 9 9 0 0
VVECTOR 5 9
SWIDTH1 0 -1000
DWIDTH1 0 -12
BITMAP 
3E80
4100
8280
8480
8880
9080
A080
4100
BE00
ENDCHAR
STARTCHAR Ugrave
ENCODING 217
SWIDTH 833 0
DWIDTH 10 0
BBX 8 9 0 0
VVECTOR 4 9
SWIDTH1 0 -1000
DWIDTH1 0 -12
BITMAP 
30
89
81
81
81
81
83
45
39
ENDCHAR
STARTCHAR Uacute
ENCODING 218
SWIDTH 833 0
DWIDTH 10 0
BBX 8 9 0 0
VVECTOR 4 9
SWIDTH1 0 -1000
DWIDTH1 0 -12
BITMAP 
0C
91
81
81
81
81
83
45
39
ENDCHAR
STARTCHAR Ucircumflex
ENCODING 219
SWIDTH 833 0
DWIDTH 10 0
BBX 8 9 0 0
VVECTOR 4 9
SWIDTH1 0 -1000
DWIDTH1 0 -12
BITMAP 
18
A5
81
81
81
81
83
45
39
ENDCHAR
STARTCHAR Udieresis
ENCODING 220
SWIDTH 833 0
DWIDTH 10 0
BBX 8 9 0 0
VVECTOR 4 9
SWIDTH1 0 -1000
DWIDTH1 0 -12
BITMAP 
66
81
81
81
81
81
83
45
39
ENDCHAR
STARTCHAR Yacute
ENCODING 221
SWIDTH 833 0
DWIDTH 10 0
BBX 9 9 0 0
VVECTOR 5 9
SWIDTH1 0 -1000
DWIDTH1 0 -12
BITMAP 
0600
8880
4100
2200
1400
0800
0800
0800
0800
ENDCHAR
STARTCHAR Thorn
ENCODING 222
SWIDTH 917 0
DWIDTH 11 0
BBX 10 11 0 -2
VVECTOR 5 9
SWIDTH1 0 -1000
DWIDTH1 0 -12
BITMAP 
F800
2000
3F00
2080
2040
2080
3F00
2000
2000
2000
F800
ENDCHAR
STARTCHAR germandbls
ENCODING 223
SWIDTH 750 0
DWIDTH 9 0
BBX 8 11 0 -2
VVECTOR 4 9
SWIDTH1 0 -1000
DWIDTH1 0 -12
BITMAP 
7C
82
81
82
9C
82
81
82
9C
80
80
ENDCHAR
STARTCHAR agrave
ENCODING 224
SWIDTH 750 0
DWIDTH 9 0
BBX 8 9 0 0
VVECTOR 4 9
SWIDTH1 0 -1000
DWIDTH1 0 -12
BITMAP 
30
08
3E
41
81
81
81
43
3D
ENDCHAR
STARTCHAR aacute
ENCODING 225
SWIDTH 750 0
DWIDTH 9 0
BBX 8 9 0 0
VVECTOR 4 9
SWIDTH1 0 -1000
DWIDTH1 0 -12
BITMAP 
06
08
3E
41
81
81
81
43
3D
ENDCHAR
STARTCHAR acircumflex
ENCODING 226
SWIDTH 750 0
DWIDTH 9 0
BBX 8 9 0 0
VVECTOR 4 9
SWIDTH1 0 -1000
DWIDTH1 0 -12
BITMAP 
08
14
3E
41
81
81
81
43
3D
ENDCHAR
STARTCHAR atilde
ENCODING 227
SWIDTH 750 0
DWIDTH 9 0
BBX 8 9 0 0
VVECTOR 4 9
SWIDTH1 0 -1000
DWIDTH1 0 -12
BITMAP 
71
8E
3E
41
81
81
81
43
3D
ENDCHAR
STARTCHAR adieresis
ENCODING 228
SWIDTH 750 0
DWIDTH 9 0
BBX 8 9 0 0
VVECTOR 4 9
SWIDTH1 0 -1000
DWIDTH1 0 -12
BITMAP 
63
00
3E
41
81
81
81
43
3D
ENDCHAR
STARTCHAR aring
ENCODING 229
SWIDTH 750 0
DWIDTH 9 0
BBX 8 9 0 0
VVECTOR 4 9
SWIDTH1 0 -1000
DWIDTH1 0 -12
BITMAP 
3E
41
3E
41
81
81
81
43
3D
ENDCHAR
STARTCHAR ae
ENCODING 230
SWIDTH 1000 0
DWIDTH 12 0
BBX 11 7 0 0
VVECTOR 6 9
SWIDTH1 0 -1000
DWIDTH1 0 -12
BITMAP 
3BC0
4420
8440
8480
8500
4620
39C0
ENDCHAR
STARTCHAR ccedilla
ENCODING 231
SWIDTH 750 0
DWIDTH 9 0
BBX 8 9 0 -2
VVECTOR 4 9
SWIDTH1 0 -1000
DWIDTH1 0 -12
BITMAP 
3E
41
80
80
80
41
3E
08
10
ENDCHAR
STARTCHAR egrave
ENCODING 232
SWIDTH 750 0
DWIDTH 9 0
BBX 8 9 0 0
VVECTOR 4 9
SWIDTH1 0 -1000
DWIDTH1 0 -12
BITMAP 
60
10
38
44
88
90
A1
42
3C
ENDCHAR
STARTCHAR eacute
ENCODING 233
SWIDTH 750 0
DWIDTH 9 0
BBX 8 9 0 0
VVECTOR 4 9
SWIDTH1 0 -1000
DWIDTH1 0 -12
BITMAP 
0C
10
38
44
88
90
A1
42
3C
ENDCHAR
STARTCHAR ecircumflex
ENCODING 234
SWIDTH 750 0
DWIDTH 9 0
BBX 8 9 0 0
VVECTOR 4 9
SWIDTH1 0 -1000
DWIDTH1 0 -12
BITMAP 
10
28
38
44
88
90
A1
42
3C
ENDCHAR
STARTCHAR edieresis
ENCODING 235
SWIDTH 750 0
DWIDTH 9 0
BBX 8 9 0 0
VVECTOR 4 9
SWIDTH1 0 -1000
DWIDTH1 0 -12
BITMAP 
C6
00
38
44
88
90
A1
42
3C
ENDCHAR
STARTCHAR igrave
ENCODING 236
SWIDTH 500 0
DWIDTH 6 0
BBX 3 9 1 0
VVECTOR 3 9
SWIDTH1 0 -1000
DWIDTH1 0 -12
BITMAP 
C0
20
00
20
20
20
20
20
20
ENDCHAR
STARTCHAR iacute
ENCODING 237
SWIDTH 500 0
DWIDTH 6 0
BBX 3 9 1 0
VVECTOR 3 9
SWIDTH1 0 -1000
DWIDTH1 0 -12
BITMAP 
60
80
00
80
80
80
80
80
80
ENDCHAR
STARTCHAR icircumflex
ENCODING 238
SWIDTH 500 0
DWIDTH 6 0
BBX 5 9 0 0
VVECTOR 3 9
SWIDTH1 0 -1000
DWIDTH1 0 -12
BITMAP 
20
50
88
20
20
20
20
20
20
ENDCHAR
STARTCHAR idieresis
ENCODING 239
SWIDTH 667 0
DWIDTH 8 0
BBX 7 9 0 0
VVECTOR 4 9
SWIDTH1 0 -1000
DWIDTH1 0 -12
BITMAP 
C6
00
10
10
10
10
10
10
10
ENDCHAR
STARTCHAR eth
ENCODING 240
SWIDTH 917 0
DWIDTH 11 0
BBX 10 9 0 0
VVECTOR 5 9
SWIDTH1 0 -1000
DWIDTH1 0 -12
BITMAP 
0600
0100
07C0
0100
3D00
4300
8100
4200
3C00
ENDCHAR
STARTCHAR ntilde
ENCODING 241
SWIDTH 750 0
DWIDTH 9 0
BBX 8 9 0 0
VVECTOR 4 9
SWIDTH1 0 -1000
DWIDTH1 0 -12
BITMAP 
79
8E
3C
C2
81
81
81
81
81
ENDCHAR
STARTCHAR ograve
ENCODING 242
SWIDTH 750 0
DWIDTH 9 0
BBX 8 9 0 0
VVECTOR 4 9
SWIDTH1 0 -1000
DWIDTH1 0 -12
BITMAP 
30
08
3C
42
81
81
81
42
3C
ENDCHAR
STARTCHAR oacute
ENCODING 243
SWIDTH 750 0
DWIDTH 9 0
BBX 8 9 0 0
VVECTOR 4 9
SWIDTH1 0 -1000
DWIDTH1 0 -12
BITMAP 
0C
10
3C
42
81
81
81
42
3C
ENDCHAR
STARTCHAR ocircumflex
ENCODING 244
SWIDTH 750 0
DWIDTH 9 0
BBX 8 9 0 0
VVECTOR 4 9
SWIDTH1 0 -1000
DWIDTH1 0 -12
BITMAP 
10
28
3C
42
81
81
81
42
3C
ENDCHAR
STARTCHAR otilde
ENCODING 245
SWIDTH 750 0
DWIDTH 9 0
BBX 8 9 0 0
VVECTOR 4 9
SWIDTH1 0 -1000
DWIDTH1 0 -12
BITMAP 
79
8E
3C
42
81
81
81
42
3C
ENDCHAR
STARTCHAR odieresis
ENCODING 246
SWIDTH 750 0
DWIDTH 9 0
BBX 8 9 0 0
VVECTOR 4 9
SWIDTH1 0 -1000
DWIDTH1 0 -12
BITMAP 
66
00
3C
42
81
81
81
42
3C
ENDCHAR
STARTCHAR divide
ENCODING 247
SWIDTH 1000 0
DWIDTH 12 0
BBX 10 5 0 2
VVECTOR 5 9
SWIDTH1 0 -1000
DWIDTH1 0 -12
BITMAP 
0C00
0000
FFC0
0000
0C00
ENDCHAR
STARTCHAR oslash
ENCODING 248
SWIDTH 750 0
DWIDTH 9 0
BBX 8 7 0 0
VVECTOR 4 9
SWIDTH1 0 -1000
DWIDTH1 0 -12
BITMAP 
3D
46
89
91
A1
42
BC
ENDCHAR
STARTCHAR ugrave
ENCODING 249
SWIDTH 750 0
DWIDTH 9 0
BBX 8 9 0 0
VVECTOR 4 9
SWIDTH1 0 -1000
DWIDTH1 0 -12
BITMAP 
30
08
81
81
81
81
81
43
3D
ENDCHAR
STARTCHAR uacute
ENCODING 250
SWIDTH 750 0
DWIDTH 9 0
BBX 8 9 0 0
VVECTOR 4 9
SWIDTH1 0 -1000
DWIDTH1 0 -12
BITMAP 
0C
10
81
81
81
81
81
43
3D
ENDCHAR
STARTCHAR ucircumflex
ENCODING 251
SWIDTH 750 0
DWIDTH 9 0
BBX 8 9 0 0
VVECTOR 4 9
SWIDTH1 0 -1000
DWIDTH1 0 -12
BITMAP 
08
14
22
81
81
81
81
43
3D
ENDCHAR
STARTCHAR udieresis
ENCODING 252
SWIDTH 750 0
DWIDTH 9 0
BBX 8 9 0 0
VVECTOR 4 9
SWIDTH1 0 -1000
DWIDTH1 0 -12
BITMAP 
C3
00
81
81
81
81
81
43
3D
ENDCHAR
STARTCHAR yacute
ENCODING 253
SWIDTH 667 0
DWIDTH 8 0
BBX 7 11 0 -2
VVECTOR 4 9
SWIDTH1 0 -1000
DWIDTH1 0 -12
BITMAP 
0C
10
82
42
22
12
0A
06
82
44
38
ENDCHAR
STARTCHAR thorn
ENCODING 254
SWIDTH 750 0
DWIDTH 9 0
BBX 8 11 0 -2
VVECTOR 4 9
SWIDTH1 0 -1000
DWIDTH1 0 -12
BITMAP 
E0
40
7C
42
41
41
41
42
7C
40
E0
ENDCHAR
STARTCHAR ydieresis
ENCODING 255
SWIDTH 667 0
DWIDTH 8 0
BBX 7 11 0 -2
VVECTOR 4 9
SWIDTH1 0 -1000
DWIDTH1 0 -12
BITMAP 
C6
00
82
42
22
12
0A
06
82
44
38
ENDCHAR
STARTCHAR default
ENCODING -1
SWIDTH 833 0
DWIDTH 10 0
BBX 8 9 1 -1
VVECTOR 5 9
SWIDTH1 0 -1000
DWIDTH1 0 -12
BITMAP 
FF
81
81
81
81
81
81
81
FF
ENDCHAR
ENDFONT
